<mxfile host="app.diagrams.net" modified="2024-03-16T04:20:49.823Z" agent="Mozilla/5.0 (Windows NT 10.0; Win64; x64) AppleWebKit/537.36 (KHTML, like Gecko) Chrome/122.0.0.0 Safari/537.36" version="24.0.6" etag="at7y4L87XPguBll1vN_h" type="github">
  <diagram name="PÃ¡gina-1" id="rUAt1XgfYVD6BHRQ_Hf9">
    <mxGraphModel>
      <root>
        <mxCell id="0" />
        <mxCell id="1" parent="0" />
      </root>
    </mxGraphModel>
  </diagram>
</mxfile>
